first trial
nRows=35
nColumns=38

# SIMM Motion File Header:
name Sujet_01_velo_60.mvnx
datacolumns 38
datarows 35
otherdata 1
range 11.4160 11.9830
endheader
time pelvis_tilt  pelvis_list  pelvis_rotation  pelvis_tx  pelvis_ty  pelvis_tz  hip_flexion_r  hip_adduction_r  hip_rotation_r  knee_angle_r  ankle_angle_r  subtalar_angle_r  mtp_angle_r  hip_flexion_l  hip_adduction_l  hip_rotation_l  knee_angle_l  ankle_angle_l  subtalar_angle_l  mtp_angle_l  lumbar_extension  lumbar_bending  lumbar_rotation  arm_flex_r  arm_add_r  arm_rot_r  elbow_flex_r  pro_sup_r  wrist_flex_r  wrist_dev_r  arm_flex_l  arm_add_l  arm_rot_l  elbow_flex_l  pro_sup_l  wrist_flex_l  wrist_dev_l
11.4160	-13.0610	0.7403	-16.1080	0.0000	1.2500	-0.0000	86.9113	-3.8356	3.1230	104.2313	-4.7301	-11.8105	-0.0000	48.3105	-6.7801	-10.0735	36.7616	-21.0606	14.1530	-0.0000	-17.2477	0.8197	-1.0170	84.7426	-17.0581	46.2130	5.6109	110.5879	-34.1906	-1.1175	79.8563	-29.5908	53.4192	12.9707	111.2929	-17.3044	6.0347	
11.4330	-13.0349	0.6699	-16.3644	0.0000	1.2500	-0.0000	88.8068	-3.3881	3.0304	104.4289	-3.8248	-12.2582	-0.0000	46.9682	-6.9542	-10.2156	36.1118	-22.2714	13.9694	0.0000	-17.4024	0.7949	-0.8759	85.1130	-17.0417	46.1590	5.6113	110.4782	-33.9998	-0.8174	80.0094	-29.6466	53.5964	12.9447	111.0980	-17.3160	6.1075	
11.4490	-13.0428	0.5982	-16.6197	0.0000	1.2500	-0.0000	90.4077	-2.9684	3.0061	104.2183	-2.8743	-12.8009	0.0000	45.9889	-7.1531	-10.3170	36.0454	-23.1541	13.8484	-0.0000	-17.5308	0.7621	-0.7448	85.4348	-17.0074	46.1305	5.6124	110.3546	-33.8338	-0.5531	80.1657	-29.7173	53.7806	12.9147	110.9354	-17.3217	6.1498	
11.4660	-13.0980	0.5060	-16.8985	0.0000	1.2500	-0.0000	91.6946	-2.5563	3.1188	103.5767	-1.8445	-13.4708	0.0000	45.4124	-7.4128	-10.3784	36.6296	-23.6228	13.7996	-0.0000	-17.6143	0.7205	-0.6241	85.6681	-16.9248	46.1260	5.6101	110.2185	-33.6910	-0.3317	80.3208	-29.8203	53.9770	12.8698	110.8262	-17.3097	6.1391	
11.4830	-13.1871	0.4119	-17.1765	0.0000	1.2500	-0.0000	92.6874	-2.1657	3.3123	102.5277	-0.7732	-14.2194	-0.0000	45.1992	-7.7037	-10.3930	37.7981	-23.7605	13.8259	-0.0000	-17.6713	0.6712	-0.5134	85.8526	-16.8248	46.1462	5.6084	110.0682	-33.5729	-0.1462	80.4793	-29.9381	54.1808	12.8212	110.7493	-17.2918	6.0979	
11.4990	-13.2760	0.3574	-17.3915	0.0000	1.2500	-0.0000	93.3200	-1.8800	3.4592	101.1144	0.1082	-14.8115	0.0000	45.3025	-7.9651	-10.3846	39.4523	-23.7113	13.9316	0.0000	-17.7222	0.6179	-0.4193	86.0243	-16.7642	46.2433	5.6062	109.8989	-33.4963	-0.0254	80.6336	-30.0369	54.3540	12.7846	110.6859	-17.2732	6.0587	
11.5160	-13.3667	0.3571	-17.5228	0.0000	1.2500	-0.0000	93.5729	-1.7329	3.5565	99.3108	0.7247	-15.1521	-0.0000	45.7415	-8.1822	-10.3729	41.6166	-23.4740	14.1045	-0.0000	-17.7728	0.5603	-0.3375	86.2044	-16.7706	46.4819	5.6028	109.6878	-33.4729	0.0064	80.7871	-30.1095	54.4923	12.7714	110.6087	-17.2567	6.0341	
11.5320	-13.4576	0.3968	-17.5908	0.0000	1.2500	-0.0000	93.4663	-1.6932	3.6184	97.1416	1.1520	-15.3398	0.0000	46.4984	-8.3712	-10.3334	44.2702	-23.0449	14.3438	-0.0000	-17.8176	0.4990	-0.2723	86.3721	-16.8164	46.7978	5.5993	109.4578	-33.4907	-0.0264	80.9361	-30.1633	54.5995	12.7703	110.5450	-17.2395	6.0116	
11.5490	-13.5094	0.4749	-17.5940	0.0000	1.2500	-0.0000	92.9936	-1.7479	3.5430	94.7245	1.3868	-15.4367	0.0000	47.4712	-8.5160	-10.2258	47.2486	-22.5620	14.6672	-0.0000	-17.8595	0.4387	-0.2436	86.5003	-16.8753	47.0495	5.5960	109.2724	-33.5307	-0.0801	81.0621	-30.1866	54.6494	12.7636	110.5568	-17.2185	5.9850	
11.5660	-13.5062	0.6012	-17.5313	0.0000	1.2500	-0.0000	92.1381	-1.9016	3.2754	92.0707	1.3909	-15.4591	0.0000	48.6588	-8.6026	-10.0371	50.5771	-22.0422	15.1161	0.0000	-17.9029	0.3812	-0.2638	86.5863	-16.9266	47.1904	5.5846	109.1550	-33.5879	-0.1421	81.1615	-30.1682	54.6057	12.7420	110.6891	-17.1989	5.9470	
11.5830	-13.4632	0.7658	-17.4042	0.0000	1.2500	-0.0000	90.9160	-2.1441	2.8627	89.1681	1.2022	-15.3917	0.0000	50.0625	-8.6385	-9.7861	54.2396	-21.4602	15.6423	0.0000	-17.9436	0.3250	-0.3202	86.6326	-16.9912	47.2670	5.5730	109.0822	-33.6675	-0.2251	81.2378	-30.1195	54.5047	12.7150	110.8969	-17.1754	5.9050	
11.5990	-13.3875	0.9383	-17.2164	0.0000	1.2500	-0.0000	89.3700	-2.4375	2.3539	86.1004	0.9301	-15.2505	-0.0000	51.5832	-8.6373	-9.4814	58.0070	-20.8953	16.1355	-0.0000	-17.9724	0.2701	-0.3954	86.6202	-17.1051	47.2783	5.5852	109.0468	-33.7648	-0.3231	81.2826	-30.0623	54.4289	12.6919	111.1081	-17.1289	5.8757	
11.6160	-13.2656	1.1160	-16.9635	0.0000	1.2500	-0.0000	87.4781	-2.7716	1.7021	82.8688	0.5945	-14.9991	-0.0000	53.1891	-8.6032	-9.1226	61.8632	-20.3632	16.5518	-0.0000	-17.9901	0.2140	-0.4836	86.5472	-17.2946	47.2073	5.6358	109.0543	-33.8823	-0.4304	81.2964	-29.9996	54.4420	12.6626	111.2665	-17.0287	5.8709	
11.6330	-13.1102	1.3005	-16.6506	0.0000	1.2500	-0.0000	85.2614	-3.1391	0.9359	79.4709	0.1735	-14.6790	0.0000	54.9115	-8.5217	-8.7183	65.8242	-19.8522	16.9385	0.0000	-17.9961	0.1588	-0.5903	86.4147	-17.5331	47.0701	5.7102	109.0991	-34.0178	-0.5528	81.2784	-29.9284	54.4800	12.6371	111.4282	-16.9054	5.8788	
11.6490	-12.9685	1.4682	-16.2946	0.0000	1.2500	-0.0000	82.8288	-3.5128	0.2204	75.9862	-0.2846	-14.4217	-0.0000	56.7456	-8.3789	-8.2886	69.7052	-19.4041	17.3275	-0.0000	-17.9799	0.1112	-0.7146	86.2077	-17.7772	46.9145	5.7886	109.1571	-34.1594	-0.7021	81.2183	-29.8624	54.4334	12.6542	111.6887	-16.8317	5.8807	
11.6660	-12.8469	1.5985	-15.8935	0.0000	1.2500	-0.0000	80.1661	-3.8993	-0.4082	72.4318	-0.7136	-14.2906	0.0000	58.6880	-8.1642	-7.8547	73.4737	-19.0551	17.7715	0.0000	-17.9363	0.0791	-0.8576	85.8973	-18.0137	46.7394	5.8653	109.2304	-34.3040	-0.8854	81.0899	-29.8104	54.2138	12.7524	112.1300	-16.8561	5.8719	
11.6830	-12.7390	1.7121	-15.4491	0.0000	1.2500	-0.0000	77.2860	-4.2862	-1.0025	68.7921	-1.1777	-14.2206	0.0000	60.7389	-7.8789	-7.4071	77.1650	-18.7679	18.2215	-0.0000	-17.8706	0.0538	-1.0184	85.5117	-18.2544	46.5450	5.9459	109.3168	-34.4551	-1.0954	80.9204	-29.7637	53.9099	12.8928	112.6701	-16.9299	5.8575	
11.6990	-12.6730	1.8483	-14.9841	0.0000	1.2500	-0.0000	74.3381	-4.6352	-1.5205	65.0982	-1.8228	-14.1496	0.0000	62.8990	-7.5296	-6.9192	80.6888	-18.4799	18.5597	0.0000	-17.7871	0.0181	-1.1927	85.1223	-18.4943	46.3821	6.0269	109.3859	-34.6107	-1.3217	80.7792	-29.7103	53.6782	12.9993	113.1579	-16.9801	5.8345	
11.7160	-12.6648	2.0182	-14.4882	0.0000	1.2500	-0.0000	71.3151	-4.9490	-1.9573	61.2972	-2.6693	-14.0704	-0.0000	65.1874	-7.1119	-6.3917	84.0228	-18.2126	18.7486	0.0000	-17.6791	-0.0333	-1.3844	84.7506	-18.7380	46.2698	6.1075	109.4379	-34.7748	-1.5723	80.6881	-29.6535	53.5908	13.0442	113.5297	-16.9825	5.7917	
11.7320	-12.6979	2.2120	-13.9711	0.0000	1.2500	-0.0000	68.2244	-5.2355	-2.3218	57.4429	-3.6974	-13.9889	0.0000	67.5827	-6.6242	-5.8388	87.1764	-17.9535	18.8317	-0.0000	-17.5538	-0.0956	-1.5896	84.3753	-18.9809	46.1892	6.1887	109.4727	-34.9433	-1.8389	80.6246	-29.5900	53.5753	13.0548	113.8490	-16.9613	5.7400	
11.7490	-12.7516	2.4376	-13.4860	0.0000	1.2500	-0.0000	65.2389	-5.4810	-2.5780	53.7266	-4.9938	-13.8611	-0.0000	70.0258	-6.0804	-5.2501	90.0988	-17.5928	18.8131	0.0000	-17.4355	-0.1711	-1.7919	84.0046	-19.2059	46.1351	6.2701	109.4591	-35.1029	-2.0858	80.5916	-29.4970	53.5710	13.0373	114.1561	-16.9166	5.7086	
11.7660	-12.8274	2.7216	-13.0598	0.0000	1.2500	-0.0000	62.3843	-5.7111	-2.7474	50.1246	-6.6752	-13.6460	0.0000	72.5325	-5.4838	-4.5808	92.7846	-17.1106	18.6691	0.0000	-17.3262	-0.2744	-1.9823	83.6276	-19.4115	46.1130	6.3546	109.3799	-35.2514	-2.3078	80.5901	-29.3516	53.5646	12.9726	114.4726	-16.8340	5.6995	
11.7830	-12.9236	3.0377	-12.6653	0.0000	1.2500	-0.0000	59.6349	-5.9268	-2.7987	46.6623	-8.6264	-13.3764	-0.0000	75.0870	-4.8313	-3.8812	95.2273	-16.5229	18.4156	-0.0000	-17.2239	-0.3902	-2.1696	83.2560	-19.5994	46.1184	6.4394	109.2521	-35.3908	-2.5101	80.6186	-29.1765	53.5690	12.8802	114.7768	-16.7278	5.7106	
11.7990	-13.0153	3.3146	-12.2739	0.0000	1.2500	-0.0000	57.0870	-6.0878	-2.6042	43.6062	-10.5872	-13.1179	0.0000	77.5828	-4.1333	-3.2752	97.3799	-15.7709	18.1102	-0.0000	-17.1466	-0.4747	-2.3638	82.9330	-19.7586	46.1322	6.5153	109.0957	-35.5143	-2.6723	80.6757	-29.0171	53.5630	12.8241	115.0442	-16.6404	5.7661	
11.8160	-13.0957	3.5233	-11.8843	0.0000	1.2500	-0.0000	54.7628	-6.1931	-2.0549	41.0324	-12.5622	-12.8078	0.0000	80.0220	-3.3928	-2.8028	99.2551	-14.7892	17.7527	-0.0000	-17.1020	-0.5097	-2.5735	82.6676	-19.8699	46.1362	6.5810	108.9220	-35.6185	-2.7799	80.7622	-28.8929	53.5244	12.8346	115.2677	-16.5777	5.8870	
11.8320	-13.1727	3.6925	-11.4983	0.0000	1.2500	-0.0000	52.6372	-6.2727	-1.2437	38.8655	-14.5501	-12.4958	-0.0000	82.4028	-2.6149	-2.4233	100.8449	-13.6253	17.3120	-0.0000	-17.0817	-0.5125	-2.7904	82.4515	-19.9534	46.1494	6.6373	108.7194	-35.7067	-2.8477	80.8778	-28.7841	53.4758	12.8824	115.4546	-16.5339	6.0524	
11.8490	-13.2435	3.8363	-11.0920	0.0000	1.2500	-0.0000	50.7357	-6.3224	-0.3422	37.1414	-16.2776	-12.4242	-0.0000	84.6139	-1.8173	-2.1343	102.0768	-12.3935	16.8042	0.0000	-17.0799	-0.4926	-2.9994	82.3018	-20.0564	46.2080	6.6782	108.4736	-35.7814	-2.8996	81.0199	-28.6772	53.4646	12.9431	115.6012	-16.5344	6.2245	
11.8660	-13.3039	3.9576	-10.6270	0.0000	1.2500	-0.0000	49.0459	-6.3143	0.7094	35.8302	-17.7140	-12.7778	-0.0000	86.6455	-0.9733	-1.9302	102.9311	-11.0793	16.2076	0.0000	-17.0996	-0.4450	-3.2008	82.2306	-20.2138	46.3457	6.6981	108.1445	-35.8425	-2.9381	81.2001	-28.5732	53.5110	13.0127	115.7113	-16.5970	6.4032	
11.8820	-13.3584	4.0536	-10.1419	0.0000	1.2500	-0.0000	47.5773	-6.2735	1.8598	34.9515	-18.8891	-13.3727	-0.0000	88.5094	-0.1168	-1.8114	103.4309	-9.6781	15.5225	-0.0000	-17.1373	-0.3741	-3.3940	82.2262	-20.3912	46.5287	6.7022	107.7721	-35.8901	-2.9608	81.4063	-28.4706	53.5947	13.0958	115.7818	-16.7039	6.5888	
11.8990	-13.4181	4.1288	-9.7292	0.0000	1.2500	-0.0000	46.3929	-6.2523	2.7695	34.6199	-19.6135	-13.9093	-0.0000	90.1288	0.6411	-1.7690	103.5678	-8.3400	14.8333	0.0000	-17.1772	-0.3041	-3.5636	82.2691	-20.5326	46.6916	6.7016	107.4623	-35.9273	-2.9843	81.6001	-28.3525	53.7007	13.1795	115.7984	-16.8263	6.7441	
11.9160	-13.4858	4.1914	-9.4032	0.0000	1.2500	-0.0000	45.5084	-6.2544	3.3156	34.8934	-19.7464	-14.3199	0.0000	91.4959	1.2861	-1.7939	103.3347	-7.0962	14.1848	-0.0000	-17.2149	-0.2398	-3.7091	82.3489	-20.6126	46.8030	6.7018	107.2646	-35.9530	-3.0133	81.7519	-28.1831	53.8099	13.2452	115.7536	-16.9652	6.8583	
11.9320	-13.5591	4.2330	-9.1496	0.0000	1.2500	-0.0000	44.9152	-6.2559	3.6278	35.7197	-19.4229	-14.6871	0.0000	92.6202	1.8275	-1.8680	102.7405	-5.9325	13.5647	-0.0000	-17.2548	-0.1766	-3.8311	82.4760	-20.6566	46.8942	6.6975	107.1295	-35.9683	-3.0431	81.8910	-27.9987	53.9410	13.3108	115.6547	-17.1195	6.9422	
11.9490	-13.6402	4.2332	-9.0171	0.0000	1.2500	-0.0000	44.6447	-6.2613	3.7455	37.0543	-18.8671	-14.9407	-0.0000	93.4514	2.1908	-1.9567	101.8020	-4.9514	13.0025	-0.0000	-17.2953	-0.1249	-3.9161	82.6632	-20.6848	46.9943	6.6836	107.0134	-35.9791	-3.0761	82.0684	-27.8912	54.1358	13.4178	115.5096	-17.2573	6.9910	
11.9660	-13.7359	4.1818	-9.0372	0.0000	1.2500	-0.0000	44.7204	-6.2825	3.6181	38.9319	-18.0589	-15.0629	-0.0000	93.9978	2.3333	-2.0328	100.5032	-4.2374	12.5106	-0.0000	-17.3391	-0.0898	-3.9583	82.9509	-20.7094	47.1218	6.6521	106.8928	-35.9894	-3.1166	82.3225	-27.9182	54.4587	13.6123	115.2811	-17.3697	6.9972	
11.9830	-13.8395	4.0882	-9.1788	0.0000	1.2500	-0.0000	45.1189	-6.3072	3.2970	41.3230	-17.0204	-15.0757	0.0000	94.2504	2.2990	-2.1082	98.8627	-3.7268	12.1072	0.0000	-17.3838	-0.0666	-3.9638	83.2986	-20.7179	47.2579	6.6110	106.7911	-35.9952	-3.1603	82.6167	-28.0217	54.8465	13.8486	115.0060	-17.4658	6.9687	
